<?xml version="1.0"?>
<svg xmlns="http://www.w3.org/2000/svg" height="512px" viewBox="0 0 496 496" width="512px" class=""><g><path d="m72 120c22.054688 0 40-17.945312 40-40s-17.945312-40-40-40-40 17.945312-40 40 17.945312 40 40 40zm0-64c13.230469 0 24 10.769531 24 24s-10.769531 24-24 24-24-10.769531-24-24 10.769531-24 24-24zm0 0" data-original="#000000" class="active-path" data-old_color="#000000" fill="#2D2D2D"/><path d="m440 98.664062-8 10.664063v-69.328125c0-22.054688-17.945312-40-40-40h-352c-22.054688 0-40 17.945312-40 40v208c0 22.054688 17.945312 40 40 40h24v22.207031l29.832031 7.640625c2.335938 7.558594 5.351563 14.863282 9.007813 21.792969l-15.6875 26.480469 42.726562 42.71875 26.472656-15.679688c6.929688 3.65625 14.234376 6.664063 21.800782 9l7.640625 29.839844h60.421875l7.640625-29.832031c7.558593-2.335938 14.863281-5.351563 21.800781-9l26.472656 15.679687 42.726563-42.71875-15.6875-26.480468c3.65625-6.929688 6.671875-14.234376 9.007812-21.792969l29.824219-7.648438v-22.207031h16v152c0 30.878906 25.128906 56 56 56s56-25.121094 56-56v-266.664062zm0 26.671876 32 42.664062h-64l24-32zm-40 274.664062h80v16h-80zm48-16v-168h-16v168h-32v-200h32v16h16v-16h32v200zm-432-344c0-13.230469 10.769531-24 24-24h352c13.230469 0 24 10.769531 24 24v90.664062l-14.726562 19.632813-52.769532-81.128906c-15.128906-23.273438-40.734375-37.167969-68.496094-37.167969-27.769531 0-53.382812 13.894531-68.519531 37.183594l-31.152343 47.9375c-8.9375-3.296875-18.480469-5.121094-28.320313-5.121094-27.769531 0-53.382813 13.894531-68.519531 37.183594l-67.054688 103.152344c-.265625-1.414063-.441406-2.855469-.441406-4.335938zm191.105469 117.886719 23.503906 36.136719c-.210937.242187-.433594.472656-.648437.710937-7.425782 8.472656-12.105469 13.265625-21.992188 13.265625-9.898438 0-14.578125-4.792969-22-13.273438-7.304688-8.34375-16.402344-18.726562-34.03125-18.726562-17.632812 0-26.722656 10.382812-34.027344 18.734375-7.414062 8.472656-12.078125 13.265625-21.964844 13.265625-9.875 0-14.546874-4.792969-21.945312-13.265625-.199219-.222656-.40625-.4375-.609375-.664063l23.511719-36.175781c12.175781-18.71875 32.769531-29.894531 55.105468-29.894531 22.320313 0 42.914063 11.167969 55.097657 29.886719zm8.246093-15.671875c-5.847656-7.207032-12.816406-13.214844-20.550781-17.984375l30.109375-46.328125c12.167969-18.726563 32.761719-29.902344 55.097656-29.902344 22.320313 0 42.914063 11.167969 55.097657 29.886719l29.636719 45.585937c-2.429688 2.34375-4.636719 4.816406-6.773438 7.253906-7.425781 8.472657-12.105469 13.273438-22 13.273438-9.898438 0-14.578125-4.792969-22-13.273438-7.304688-8.34375-16.402344-18.726562-34.03125-18.726562-17.632812 0-26.722656 10.382812-34.027344 18.734375-7.414062 8.472656-12.078125 13.265625-21.964844 13.265625-3.21875 0-6.007812-.65625-8.59375-1.785156zm-189.527343 125.050781 38.535156-59.28125c6.929687 7.71875 15.832031 16.015625 31.585937 16.015625 17.621094 0 26.710938-10.382812 34.015626-18.726562 7.414062-8.480469 12.085937-13.273438 21.976562-13.273438 9.894531 0 14.574219 4.792969 22 13.273438 7.300781 8.34375 16.398438 18.726562 34.03125 18.726562 15.808594 0 24.726562-8.335938 31.671875-16.070312l41.671875 64.070312h-241.3125c-5.320312 0-10.191406-1.800781-14.175781-4.734375zm142.894531 20.734375c3.824219 22.664062 23.539062 40 47.28125 40s43.449219-17.335938 47.28125-40h32.320312c-4.035156 40.367188-38.1875 72-79.59375 72s-75.566406-31.632812-79.59375-72zm16.417969 0h61.726562c-3.574219 13.761719-15.992187 24-30.863281 24s-27.289062-10.238281-30.863281-24zm166.863281 9.792969-26.761719 6.847656-1.214843 4.511719c-2.527344 9.390625-6.230469 18.351562-11.007813 26.648437l-2.335937 4.046875 14.074218 23.746094-25.167968 25.160156-23.746094-14.066406-4.054688 2.335938c-8.28125 4.777343-17.242187 8.480468-26.632812 11.007812l-4.511719 1.214844-6.847656 26.753906h-35.578125l-6.847656-26.761719-4.511719-1.214843c-9.390625-2.527344-18.351563-6.230469-26.632813-11.007813l-4.054687-2.335937-23.742188 14.0625-25.167969-25.15625 14.070313-23.746094-2.335937-4.046875c-4.777344-8.289063-8.480469-17.257813-11.007813-26.648438l-1.214844-4.511719-26.769531-6.839843v-9.792969h40.40625c4.089844 49.191406 45.355469 88 95.59375 88s91.503906-38.808594 95.59375-88h40.40625zm-51.609375-25.792969-73.007813-112.257812c15.335938-1.277344 23.777344-10.710938 30.578126-18.46875 7.414062-8.480469 12.085937-13.273438 21.976562-13.273438 9.894531 0 14.574219 4.792969 22 13.273438 7.300781 8.34375 16.398438 18.726562 34.03125 18.726562s26.726562-10.382812 34.039062-18.734375c1.238282-1.417969 2.457032-2.738281 3.671876-4.050781l17.367187 26.714844-7.046875 9.40625v98.664062zm139.609375 208c-22.054688 0-40-17.945312-40-40v-8h80v8c0 22.054688-17.945312 40-40 40zm0 0" data-original="#000000" class="active-path" data-old_color="#000000" fill="#2D2D2D"/></g> </svg>
